# xmcd
#
# Track frame offsets:
#	182
#	21970
#	38615
#	53982
#	70967
#	91585
#	107767
#	127862
#	145285
#	162375
#	180497
#	194950
#	209430
#	227140
#	245365
#	263142
#	283530
#	299717
#
# Disc length: 4306 seconds
#
# Revision: 4
# Processed by: cddbd v1.5.1PL0 Copyright (c) Steve Scherf et al.
# Submitted via: MusicWizard 7.0.2
#
DISCID=1010d012
DTITLE=Various Artist - 1995-01 18 Top Hits
DYEAR=1995
DGENRE=Top 100
TTITLE0=Joe Cocker - The Simple Things
TTITLE1=Roxette - Fireworks
TTITLE2=Bonnie Tyler - Say Goodbye
TTITLE3=The Kelly Family - An Angel
TTITLE4=Joshua Kadison - Picture Postcards From L.A.
TTITLE5=Worlds Apart - Everlasting Love
TTITLE6=Kylie Minogue - Conide Me
TTITLE7=Prince Ital Joe Feat. Marky Mark - Life In The Streets
TTITLE8=Odyssey - Into The Light
TTITLE9=DJ Bobo - Let The Dream Come True
TTITLE10=Ace Of Base - Living In Danger
TTITLE11=Rednex - Cotton Eye Joe
TTITLE12=Londonbeat - Come Back
TTITLE13=La Bouche - Sweet Dreams
TTITLE14=Jon Secada - Whipped
TTITLE15=C&C Music Factory - Do You Wanna Get Funky?
TTITLE16=U96 - Love Religion
TTITLE17=Scooter - Hyper, Hyper
EXTD=
EXTT0=
EXTT1=
EXTT2=
EXTT3=
EXTT4=
EXTT5=
EXTT6=
EXTT7=
EXTT8=
EXTT9=
EXTT10=
EXTT11=
EXTT12=
EXTT13=
EXTT14=
EXTT15=
EXTT16=
EXTT17=
PLAYORDER=
